<svg xmlns="http://www.w3.org/2000/svg" width="1600" height="900" viewBox="0 0 1600 900" role="img" aria-label="Tuxborn Wiki atlas preview">
  <defs>
    <linearGradient id="bg" x1="0" y1="0" x2="1" y2="1">
      <stop offset="0%" stop-color="#11161f"/>
      <stop offset="55%" stop-color="#1f2b34"/>
      <stop offset="100%" stop-color="#3d4a46"/>
    </linearGradient>
    <linearGradient id="band" x1="0" y1="0" x2="1" y2="0">
      <stop offset="0%" stop-color="#8f7650" stop-opacity="0.3"/>
      <stop offset="100%" stop-color="#d7c5a2" stop-opacity="0.7"/>
    </linearGradient>
    <pattern id="grid" width="48" height="48" patternUnits="userSpaceOnUse">
      <path d="M48 0H0V48" fill="none" stroke="#c9b58f" stroke-opacity="0.09"/>
    </pattern>
  </defs>

  <rect width="1600" height="900" fill="url(#bg)"/>
  <rect width="1600" height="900" fill="url(#grid)"/>

  <path d="M0 620C220 560 320 700 520 660C730 620 860 520 1110 560C1320 590 1490 520 1600 460V900H0Z" fill="#0f141b" fill-opacity="0.72"/>
  <path d="M0 690C250 630 390 780 640 730C850 690 1060 620 1300 660C1460 690 1550 650 1600 620V900H0Z" fill="#0a0f14" fill-opacity="0.76"/>

  <rect x="120" y="104" width="1360" height="84" rx="12" fill="#0f1319" fill-opacity="0.72" stroke="#dbc8a4" stroke-opacity="0.28"/>
  <rect x="120" y="104" width="1360" height="10" rx="8" fill="url(#band)"/>
  <text x="170" y="158" fill="#ede3cf" font-size="42" font-family="Georgia, 'Times New Roman', serif">Tuxborn Wiki</text>
  <text x="548" y="157" fill="#b7c3ce" font-size="24" font-family="'Courier New', monospace">Install | Playthrough | FAQ | Checklist</text>

  <g transform="translate(120 250)">
    <rect width="640" height="420" rx="16" fill="#121922" fill-opacity="0.74" stroke="#cfbb96" stroke-opacity="0.30"/>
    <text x="40" y="62" fill="#efe5d1" font-size="30" font-family="Georgia, 'Times New Roman', serif">Reference Hubs</text>
    <text x="40" y="108" fill="#c7d2db" font-size="22" font-family="'Courier New', monospace">Getting Started</text>
    <text x="40" y="146" fill="#c7d2db" font-size="22" font-family="'Courier New', monospace">Content and Quests</text>
    <text x="40" y="184" fill="#c7d2db" font-size="22" font-family="'Courier New', monospace">Followers</text>
    <text x="40" y="222" fill="#c7d2db" font-size="22" font-family="'Courier New', monospace">Frequently Asked Questions</text>
    <text x="40" y="260" fill="#c7d2db" font-size="22" font-family="'Courier New', monospace">Known Quest-Blocking Bugs</text>
    <text x="40" y="298" fill="#c7d2db" font-size="22" font-family="'Courier New', monospace">Installation and Config Guides</text>
    <line x1="40" y1="330" x2="600" y2="330" stroke="#cfbb96" stroke-opacity="0.36"/>
    <text x="40" y="378" fill="#d9c8a8" font-size="18" font-family="'Courier New', monospace">GitHub Wiki remains the source of truth.</text>
  </g>

  <g transform="translate(820 250)">
    <rect width="660" height="420" rx="16" fill="#151d25" fill-opacity="0.76" stroke="#cfbb96" stroke-opacity="0.30"/>
    <text x="40" y="62" fill="#efe5d1" font-size="30" font-family="Georgia, 'Times New Roman', serif">Checklist Dashboard</text>
    <rect x="40" y="102" width="580" height="14" rx="7" fill="#1f2b34"/>
    <rect x="40" y="102" width="352" height="14" rx="7" fill="#d7c5a2"/>
    <text x="40" y="146" fill="#c7d2db" font-size="20" font-family="'Courier New', monospace">56% complete (sample)</text>

    <rect x="40" y="186" width="580" height="176" rx="12" fill="#0e131a" stroke="#c9b58f" stroke-opacity="0.24"/>
    <line x1="40" y1="230" x2="620" y2="230" stroke="#c9b58f" stroke-opacity="0.18"/>
    <line x1="40" y1="274" x2="620" y2="274" stroke="#c9b58f" stroke-opacity="0.18"/>
    <line x1="40" y1="318" x2="620" y2="318" stroke="#c9b58f" stroke-opacity="0.18"/>
    <text x="58" y="216" fill="#e4d6bc" font-size="18" font-family="'Courier New', monospace">Quests</text>
    <text x="238" y="216" fill="#e4d6bc" font-size="18" font-family="'Courier New', monospace">Followers</text>
    <text x="438" y="216" fill="#e4d6bc" font-size="18" font-family="'Courier New', monospace">Unique Gear</text>
    <text x="58" y="258" fill="#c7d2db" font-size="16" font-family="'Courier New', monospace">tracking</text>
    <text x="238" y="258" fill="#c7d2db" font-size="16" font-family="'Courier New', monospace">routing</text>
    <text x="438" y="258" fill="#c7d2db" font-size="16" font-family="'Courier New', monospace">coverage</text>
    <text x="40" y="396" fill="#d9c8a8" font-size="18" font-family="'Courier New', monospace">Scheduled syncs keep reference content fresh.</text>
  </g>
</svg>
